 http://img35.imageshack.us/img35/3785/captainamericathefirstax.jpg

Country.......: USA
Genre.........: Action, Sci-Fi, Adventure, Thriller
Date release..: 21.07.2011 [World]
Director......: Joe Johnston
Writers.......: Christopher Markus, Stephen McFeely
Duration......: 114 min.
More..........: http://www.imdb.com/title/tt0458339
Trailer.......: http://www.imdb.com/video/imdb/vi2912787481
Trailer.......:

Pilot :
After being deemed unfit for military service, Steve Rogers volunteers for a top secret research project that turns him into Captain America, a superhero dedicated to defending America's ideals. 

Cats :
Chris Evans   	 ...  	Captain America | Steve Rogers
Hayley Atwell 	... 	Peggy Carter
Sebastian Stan 	... 	James Buchanan Bucky Barnes
Tommy Lee Jones 	... 	Colonel Chester Phillips
Hugo Weaving 	... 	Johann Schmidt | Red Skull
Dominic Cooper 	... 	Howard Stark
Richard Armitage 	... 	Heinz Kruger
Stanley Tucci 	... 	Dr. Abraham Erskine
Samuel L. Jackson 	... 	Nick Fury
Toby Jones 	... 	Dr. Arnim Zola
Neal McDonough 	... 	Timothy Dum Dum Dugan
Derek Luke 	... 	Gabe Jones
Kenneth Choi 	... 	Jim Morita
JJ Feild 	... 	James Montgomery Falsworth
Bruno Ricci 	... 	Jacques Dernier 

Data Technical :
!!! SAMPLE !!!
Audio.....: English
Subtitles.: None
Format                           : AVI
Format/Info                      : Audio Video Interleave
File size                        : 1.37 GiB
Duration                         : 1h 53mn
Overall bit rate                 : 1 719 Kbps
Writing application              : VirtualDubMod 1.5.10.2 (build 2540/release)
Writing library                  : VirtualDubMod build 2540/release
Video
ID                               : 0
Format                           : MPEG-4 Visual
Format profile                   : Advanced Simple@L5
Format settings, BVOP            : Yes
Format settings, QPel            : Yes
Format settings, GMC             : 3 warppoints
Format settings, Matrix          : Default (H.263)
Codec ID                         : XVID
Codec ID/Hint                    : XviD
Duration                         : 1h 53mn
Bit rate                         : 1 579 Kbps
Width                            : 720 pixels
Height                           : 336 pixels
Display aspect ratio             : 2.2:1
Frame rate                       : 29.970 fps
Color space                      : YUV
Chroma subsampling               : 4:2:0
Bit depth                        : 8 bits
Scan type                        : Progressive
Bits/(Pixel*Frame)               : 0.218
Stream size                      : 1.25 GiB (92%)
Writing library                  : XviD 1.2.0.dev47 (UTC 2006-11-01)
Audio
ID                               : 1
Format                           : MPEG Audio
Format version                   : Version 1
Format profile                   : Layer 3
Codec ID                         : 55
Codec ID/Hint                    : MP3
Duration                         : 1h 53mn
Bit rate mode                    : Constant
Bit rate                         : 128 Kbps
Channel(s)                       : 2 channels
Sampling rate                    : 48.0 KHz
Stream size                      : 104 MiB (7%)
Alignment                        : Aligned on interleaves
Interleave, duration             : 33 ms (1.00 video frame)
Interleave, preload duration     : 504 ms
Writing library                  : LAME3.97 
Encoding settings                : -m s -V 4 -q 2 -lowpass 17 -b 128

Screen : 
http://img824.imageshack.us/img824/2104/captainamericathefirstao.jpg 
http://img225.imageshack.us/img225/3438/captainamericathefirstau.jpg 
http://img718.imageshack.us/img718/6384/captainamericathefirstay.jpg 
http://img543.imageshack.us/img543/5637/captainamericathefirstak.jpg 
http://img818.imageshack.us/img818/2/captainamericathefirstam.jpg